<svg xmlns="http://www.w3.org/2000/svg" viewBox="0 0 500 500"><g id="freepik--background-simple--inject-27"><path d="M325.67,40.09c-36.81.63-65.19,30.73-96.7,49.77-47.58,28.75-108.69,34.59-148.88,73C52.58,189.19,39,228.83,42.84,266.7s24.64,73.37,54.72,96.71c19.18,14.87,41.69,24.9,64.66,32.75,23.28,7.94,47.52,13.83,72.12,14.14,34.09.43,67.58-9.88,98.42-24.43,21.45-10.11,42.13-22.47,59-39.14,15.94-15.74,28.16-35.08,36.53-55.86,20.69-51.36,17.4-110.23-.54-162.62C412.91,84.92,376.63,39.21,325.67,40.09Z" style="fill:#407BFF"></path><path d="M325.67,40.09c-36.81.63-65.19,30.73-96.7,49.77-47.58,28.75-108.69,34.59-148.88,73C52.58,189.19,39,228.83,42.84,266.7s24.64,73.37,54.72,96.71c19.18,14.87,41.69,24.9,64.66,32.75,23.28,7.94,47.52,13.83,72.12,14.14,34.09.43,67.58-9.88,98.42-24.43,21.45-10.11,42.13-22.47,59-39.14,15.94-15.74,28.16-35.08,36.53-55.86,20.69-51.36,17.4-110.23-.54-162.62C412.91,84.92,376.63,39.21,325.67,40.09Z" style="fill:#fff;opacity:0.7000000000000001"></path></g></svg>